G75*
%MOIN*%
%OFA0B0*%
%FSLAX24Y24*%
%IPPOS*%
%LPD*%
%AMOC8*
5,1,8,0,0,1.08239X$1,22.5*
%
%ADD10R,0.0120X0.0240*%
%ADD11R,0.0240X0.0120*%
%ADD12R,0.0807X0.1220*%
%ADD13R,0.0710X0.0630*%
%ADD14R,0.0709X0.0630*%
%ADD15R,0.0630X0.0709*%
%ADD16R,0.0787X0.0630*%
%ADD17R,0.0630X0.0710*%
%ADD18R,0.0630X0.0787*%
%ADD19C,0.0520*%
%ADD20R,0.0394X0.0551*%
%ADD21R,0.0268X0.0197*%
%ADD22R,0.0791X0.1043*%
%ADD23R,0.0161X0.0197*%
%ADD24R,0.0512X0.1098*%
%ADD25R,0.0598X0.0642*%
%ADD26R,0.0709X0.0787*%
%ADD27C,0.0560*%
%ADD28R,0.0433X0.0984*%
%ADD29R,0.0394X0.0984*%
%ADD30C,0.1890*%
%ADD31R,0.0157X0.0179*%
%ADD32R,0.0433X0.0433*%
%ADD33R,0.0157X0.0335*%
%ADD34C,0.0780*%
%ADD35C,0.0320*%
%ADD36R,0.0560X0.0560*%
%ADD37C,0.0160*%
%ADD38C,0.0120*%
%ADD39C,0.0240*%
%ADD40R,0.0475X0.0475*%
%ADD41R,0.0860X0.0860*%
D10*
X018712Y011891D03*
X019302Y011891D03*
X019282Y013899D03*
X018731Y013899D03*
D11*
X018397Y013781D03*
X018397Y013584D03*
X018397Y013387D03*
X018397Y013191D03*
X018397Y012994D03*
X018397Y012797D03*
X018397Y012600D03*
X018397Y012403D03*
X018397Y012206D03*
X018397Y012009D03*
X019617Y012009D03*
X019617Y012206D03*
X019617Y012403D03*
X019617Y012600D03*
X019617Y012797D03*
X019617Y012994D03*
X019617Y013191D03*
X019617Y013387D03*
X019617Y013584D03*
X019617Y013781D03*
D12*
X019007Y012915D03*
D13*
X021534Y011113D03*
X021534Y009993D03*
X018964Y007943D03*
X018964Y006824D03*
X014790Y008855D03*
X014790Y009975D03*
X012007Y009987D03*
X012007Y008867D03*
X008995Y008709D03*
X008995Y009829D03*
X009015Y012694D03*
X009015Y013813D03*
X006259Y013754D03*
X006259Y012635D03*
X008924Y019032D03*
X008924Y020152D03*
X012357Y020290D03*
X012357Y019170D03*
X014369Y023473D03*
X014369Y024593D03*
X018597Y020388D03*
X018597Y019269D03*
X026042Y015750D03*
X026042Y014631D03*
X028275Y014741D03*
X028275Y015861D03*
X029664Y010065D03*
X029664Y008946D03*
X029664Y006857D03*
X029664Y005737D03*
D14*
X032613Y005730D03*
X032613Y006832D03*
X024436Y013191D03*
X024436Y014293D03*
X017204Y015435D03*
X017204Y016537D03*
X016975Y009962D03*
X016975Y008860D03*
X006200Y008608D03*
X006200Y009710D03*
X016767Y023443D03*
X016767Y024545D03*
D15*
X020897Y024635D03*
X021999Y024635D03*
X022960Y018041D03*
X024062Y018041D03*
X032086Y013608D03*
X033188Y013608D03*
X033149Y011049D03*
X032046Y011049D03*
X031979Y008746D03*
X033082Y008746D03*
X022141Y006069D03*
X021038Y006069D03*
X015086Y016277D03*
X013983Y016277D03*
D16*
X023806Y011206D03*
X023806Y010104D03*
X029979Y013462D03*
X029979Y014565D03*
D17*
X025165Y006029D03*
X024045Y006029D03*
X015059Y014080D03*
X013939Y014080D03*
D18*
X026460Y005990D03*
X027562Y005990D03*
D19*
X013550Y006171D02*
X013030Y006171D01*
X013030Y007171D02*
X013550Y007171D01*
X034357Y019470D02*
X034357Y019990D01*
X034357Y022470D02*
X034357Y022990D01*
D20*
X006601Y018037D03*
X005853Y018037D03*
X006227Y017171D03*
D21*
X032117Y017974D03*
X032117Y018230D03*
X032117Y018486D03*
X032117Y018742D03*
D22*
X031389Y018358D03*
D23*
X030920Y018486D03*
X030920Y018742D03*
X030920Y018230D03*
X030920Y017974D03*
D24*
X021519Y017246D03*
X019629Y017246D03*
D25*
X019877Y015194D03*
D26*
X021523Y015194D03*
D27*
X034077Y016230D02*
X034637Y016230D01*
X034637Y017230D02*
X034077Y017230D01*
X034077Y018230D02*
X034637Y018230D01*
D28*
X031487Y022407D03*
D29*
X029842Y022407D03*
D30*
X005515Y023269D03*
X004334Y021419D03*
X003192Y023269D03*
D31*
X011936Y023557D03*
X012212Y023557D03*
X012487Y023557D03*
X012487Y022826D03*
X012212Y022826D03*
X011936Y022826D03*
X018275Y022728D03*
X018550Y022728D03*
X018826Y022728D03*
X018826Y023458D03*
X018550Y023458D03*
X018275Y023458D03*
D32*
X018412Y023093D03*
X012074Y023192D03*
D33*
X012487Y023242D03*
X018826Y023143D03*
D34*
X018562Y003344D02*
X018562Y002564D01*
X020627Y002564D02*
X020627Y003344D01*
X022597Y003344D02*
X022597Y002564D01*
X016592Y002564D02*
X016592Y003344D01*
X014526Y003344D02*
X014526Y002564D01*
X012556Y002564D02*
X012556Y003344D01*
D35*
X015613Y005218D02*
X008625Y005218D01*
X007739Y006104D01*
X009401Y007470D02*
X010003Y008072D01*
X010003Y013387D01*
X010696Y014080D01*
X013939Y014080D01*
X015059Y014080D02*
X015059Y016250D01*
X015086Y016277D01*
X015255Y016277D01*
X015712Y016734D01*
X017007Y016734D01*
X017204Y016537D01*
X017204Y017242D01*
X017483Y017521D01*
X016204Y018604D02*
X016204Y020966D01*
X016204Y022443D02*
X016204Y023473D01*
X016767Y024545D02*
X016719Y024593D01*
X014369Y024593D01*
X012074Y023192D02*
X011996Y023269D01*
X008920Y023269D01*
X008924Y023265D01*
X008924Y020152D01*
X008897Y020179D01*
X006853Y020179D01*
X006601Y019927D01*
X006601Y018037D01*
X007739Y016899D01*
X007739Y015553D01*
X009015Y014277D01*
X009015Y013813D01*
X009015Y012694D02*
X009015Y009849D01*
X008995Y009829D01*
X008912Y009746D01*
X007838Y009746D01*
X008894Y008608D02*
X008995Y008709D01*
X008995Y007876D01*
X009401Y007470D01*
X010700Y006171D01*
X013290Y006171D01*
X013322Y006202D01*
X014432Y006202D01*
X014790Y006561D01*
X014790Y008855D01*
X014790Y009975D02*
X014779Y009987D01*
X013349Y009987D01*
X013290Y009928D01*
X013290Y007171D01*
X015613Y005218D02*
X016991Y006596D01*
X016991Y007285D01*
X018960Y006820D02*
X018960Y005809D01*
X018960Y006820D02*
X018964Y006824D01*
X022597Y002954D02*
X034806Y002954D01*
X035101Y003250D01*
X035101Y013978D01*
X032641Y016439D01*
X030180Y016439D01*
X029885Y016734D01*
X030920Y017974D02*
X030920Y018230D01*
X030920Y018486D01*
X030968Y018533D01*
X030968Y019588D01*
X031109Y019730D01*
X030920Y018742D02*
X030920Y018486D01*
X031048Y018358D02*
X030920Y018230D01*
X026420Y018230D01*
X024767Y019883D01*
X022011Y019883D01*
X021420Y020474D01*
X020928Y020966D01*
X020928Y024604D01*
X020897Y024635D01*
X020806Y024545D01*
X016767Y024545D01*
X021999Y024635D02*
X027692Y024635D01*
X028704Y023624D01*
X029842Y022407D02*
X029885Y022364D01*
X029885Y021261D01*
X031487Y022407D02*
X031810Y022730D01*
X034357Y022730D01*
X031389Y018358D02*
X031048Y018358D01*
X027227Y015356D02*
X027227Y013683D01*
X027326Y013584D01*
X026538Y013387D02*
X026042Y013387D01*
X027227Y015356D02*
X026833Y015750D01*
X026042Y015750D01*
X029979Y014565D02*
X031062Y014565D01*
X031460Y014962D01*
X033188Y013608D02*
X033188Y012403D01*
X033625Y012403D01*
X033188Y012403D02*
X033188Y011088D01*
X033149Y011049D01*
X031853Y009844D02*
X031263Y009844D01*
X031164Y009943D01*
X029664Y005737D02*
X029664Y004013D01*
X029491Y003840D01*
X026440Y003840D01*
X013349Y009987D02*
X012007Y009987D01*
X008894Y008608D02*
X006200Y008608D01*
X006200Y009710D02*
X006259Y009769D01*
X006259Y011517D01*
X006259Y012635D01*
X006259Y013754D02*
X006227Y013786D01*
X006227Y017171D01*
X005853Y018037D02*
X005853Y019277D01*
X005869Y019293D01*
X008920Y019028D02*
X008924Y019032D01*
X008920Y019028D02*
X008920Y016832D01*
X009475Y016277D01*
X013983Y016277D01*
D36*
X007739Y006104D03*
X010692Y009254D03*
X007838Y009746D03*
X007542Y011517D03*
X016204Y014569D03*
X017680Y013683D03*
X020534Y014273D03*
X023389Y014076D03*
X025259Y012502D03*
X026538Y013387D03*
X027326Y013584D03*
X028113Y011616D03*
X029983Y012600D03*
X031460Y014962D03*
X029885Y016734D03*
X028212Y016832D03*
X031755Y017029D03*
X032641Y017521D03*
X031109Y019730D03*
X029885Y021261D03*
X028704Y023624D03*
X022601Y017029D03*
X023979Y016340D03*
X022405Y011911D03*
X020731Y011813D03*
X019944Y010533D03*
X018271Y009549D03*
X020239Y007974D03*
X022601Y008466D03*
X023586Y009155D03*
X023782Y007088D03*
X025259Y004431D03*
X026440Y003840D03*
X027719Y004529D03*
X032247Y004431D03*
X031853Y009844D03*
X033625Y012403D03*
X018960Y005809D03*
X016991Y007285D03*
X017483Y017521D03*
X016204Y018604D03*
X016204Y020966D03*
X016204Y022443D03*
X008920Y023269D03*
X005869Y019293D03*
D37*
X009806Y015159D02*
X012562Y015159D01*
X012857Y014864D01*
X014231Y014864D01*
X014231Y014615D01*
X014017Y014615D01*
X014017Y014158D01*
X013862Y014158D01*
X013862Y014615D01*
X013601Y014615D01*
X013555Y014603D01*
X013514Y014579D01*
X013480Y014546D01*
X013456Y014505D01*
X013444Y014459D01*
X013444Y014158D01*
X013862Y014158D01*
X013862Y014003D01*
X014017Y014003D01*
X014017Y013545D01*
X014231Y013545D01*
X014231Y012836D01*
X014276Y012725D01*
X014361Y012641D01*
X014656Y012346D01*
X014766Y012300D01*
X014987Y012300D01*
X014656Y011969D01*
X014571Y011884D01*
X014526Y011774D01*
X014526Y010530D01*
X014388Y010530D01*
X014299Y010493D01*
X014232Y010426D01*
X014216Y010387D01*
X012586Y010387D01*
X012565Y010438D01*
X012498Y010505D01*
X012410Y010542D01*
X011604Y010542D01*
X011516Y010505D01*
X011449Y010438D01*
X011412Y010349D01*
X011412Y009624D01*
X011449Y009536D01*
X011516Y009468D01*
X011604Y009432D01*
X012410Y009432D01*
X012498Y009468D01*
X012565Y009536D01*
X012586Y009587D01*
X012890Y009587D01*
X012890Y007654D01*
X012747Y007595D01*
X012606Y007454D01*
X012530Y007270D01*
X012530Y007071D01*
X012606Y006888D01*
X012747Y006747D01*
X012931Y006671D01*
X013650Y006671D01*
X013834Y006747D01*
X013974Y006888D01*
X014050Y007071D01*
X014050Y007270D01*
X013974Y007454D01*
X013834Y007595D01*
X013690Y007654D01*
X013690Y009587D01*
X014206Y009587D01*
X014232Y009524D01*
X014299Y009456D01*
X014388Y009420D01*
X015193Y009420D01*
X015281Y009456D01*
X015349Y009524D01*
X015385Y009612D01*
X015385Y010338D01*
X015349Y010426D01*
X015281Y010493D01*
X015193Y010530D01*
X015126Y010530D01*
X015126Y011590D01*
X015442Y011906D01*
X015712Y011906D01*
X015712Y006104D01*
X015318Y005710D01*
X010298Y005710D01*
X008330Y007679D01*
X008330Y008761D01*
X008460Y008892D01*
X008460Y008787D01*
X008918Y008787D01*
X008918Y009204D01*
X008773Y009204D01*
X008842Y009274D01*
X009398Y009274D01*
X009486Y009311D01*
X009553Y009378D01*
X009590Y009466D01*
X009590Y010192D01*
X009553Y010280D01*
X009486Y010348D01*
X009415Y010377D01*
X009415Y012139D01*
X009417Y012139D01*
X009506Y012175D01*
X009573Y012243D01*
X009610Y012331D01*
X009610Y013056D01*
X009573Y013145D01*
X009506Y013212D01*
X009417Y013249D01*
X008920Y013249D01*
X008920Y013258D01*
X009417Y013258D01*
X009506Y013295D01*
X009573Y013362D01*
X009610Y013451D01*
X009610Y014176D01*
X009573Y014264D01*
X009506Y014332D01*
X009417Y014368D01*
X009410Y014368D01*
X009354Y014504D01*
X009252Y014605D01*
X009806Y015159D01*
X009678Y015031D02*
X012690Y015031D01*
X012849Y014872D02*
X009519Y014872D01*
X009361Y014714D02*
X014231Y014714D01*
X014017Y014555D02*
X013862Y014555D01*
X013862Y014397D02*
X014017Y014397D01*
X014017Y014238D02*
X013862Y014238D01*
X013862Y014080D02*
X009610Y014080D01*
X009610Y013921D02*
X013444Y013921D01*
X013444Y014003D02*
X013444Y013702D01*
X013456Y013656D01*
X013480Y013615D01*
X013514Y013581D01*
X013555Y013558D01*
X013601Y013545D01*
X013862Y013545D01*
X013862Y014003D01*
X013444Y014003D01*
X013444Y014238D02*
X009584Y014238D01*
X009398Y014397D02*
X013444Y014397D01*
X013490Y014555D02*
X009302Y014555D01*
X009610Y013763D02*
X013444Y013763D01*
X013491Y013604D02*
X009610Y013604D01*
X009608Y013446D02*
X014231Y013446D01*
X014231Y013287D02*
X009487Y013287D01*
X009580Y013129D02*
X014231Y013129D01*
X014231Y012970D02*
X009610Y012970D01*
X009610Y012812D02*
X014240Y012812D01*
X014348Y012653D02*
X009610Y012653D01*
X009610Y012495D02*
X014507Y012495D01*
X014678Y012336D02*
X009610Y012336D01*
X009508Y012178D02*
X014865Y012178D01*
X014707Y012019D02*
X009415Y012019D01*
X009415Y011861D02*
X014562Y011861D01*
X014656Y011969D02*
X014656Y011969D01*
X014526Y011702D02*
X009415Y011702D01*
X009415Y011544D02*
X014526Y011544D01*
X014526Y011385D02*
X009415Y011385D01*
X009415Y011227D02*
X014526Y011227D01*
X014526Y011068D02*
X009415Y011068D01*
X009415Y010910D02*
X014526Y010910D01*
X014526Y010751D02*
X009415Y010751D01*
X009415Y010593D02*
X014526Y010593D01*
X014241Y010434D02*
X012567Y010434D01*
X012513Y009483D02*
X012890Y009483D01*
X012890Y009325D02*
X012558Y009325D01*
X012565Y009318D02*
X012498Y009385D01*
X012410Y009422D01*
X011604Y009422D01*
X011516Y009385D01*
X011449Y009318D01*
X011412Y009230D01*
X011412Y008963D01*
X011212Y008963D01*
X011212Y009581D01*
X011175Y009669D01*
X011108Y009737D01*
X011020Y009774D01*
X010364Y009774D01*
X010276Y009737D01*
X010208Y009669D01*
X010172Y009581D01*
X010172Y008926D01*
X010208Y008838D01*
X010276Y008770D01*
X010364Y008734D01*
X010392Y008734D01*
X010392Y008702D01*
X010438Y008591D01*
X010536Y008493D01*
X010620Y008409D01*
X010731Y008363D01*
X011502Y008363D01*
X011516Y008349D01*
X011604Y008312D01*
X012410Y008312D01*
X012498Y008349D01*
X012565Y008416D01*
X012602Y008504D01*
X012602Y009230D01*
X012565Y009318D01*
X012602Y009166D02*
X012890Y009166D01*
X012890Y009008D02*
X012602Y009008D01*
X012602Y008849D02*
X012890Y008849D01*
X012890Y008691D02*
X012602Y008691D01*
X012602Y008532D02*
X012890Y008532D01*
X012890Y008374D02*
X012523Y008374D01*
X012890Y008215D02*
X009377Y008215D01*
X009374Y008214D02*
X009419Y008227D01*
X009461Y008250D01*
X009494Y008284D01*
X009518Y008325D01*
X009530Y008371D01*
X009530Y008632D01*
X009073Y008632D01*
X009073Y008787D01*
X009530Y008787D01*
X009530Y009048D01*
X009518Y009094D01*
X009494Y009135D01*
X009461Y009168D01*
X009419Y009192D01*
X009374Y009204D01*
X009073Y009204D01*
X009073Y008787D01*
X008918Y008787D01*
X008918Y008632D01*
X009073Y008632D01*
X009073Y008214D01*
X009374Y008214D01*
X009530Y008374D02*
X010704Y008374D01*
X010497Y008532D02*
X009530Y008532D01*
X009530Y008849D02*
X010204Y008849D01*
X010172Y009008D02*
X009530Y009008D01*
X009463Y009166D02*
X010172Y009166D01*
X010172Y009325D02*
X009500Y009325D01*
X009590Y009483D02*
X010172Y009483D01*
X010197Y009642D02*
X009590Y009642D01*
X009590Y009800D02*
X011412Y009800D01*
X011412Y009642D02*
X011187Y009642D01*
X011212Y009483D02*
X011501Y009483D01*
X011456Y009325D02*
X011212Y009325D01*
X011212Y009166D02*
X011412Y009166D01*
X011412Y009008D02*
X011212Y009008D01*
X010396Y008691D02*
X009073Y008691D01*
X008918Y008691D02*
X008330Y008691D01*
X008460Y008632D02*
X008460Y008371D01*
X008472Y008325D01*
X008496Y008284D01*
X008530Y008250D01*
X008571Y008227D01*
X008616Y008214D01*
X008918Y008214D01*
X008918Y008632D01*
X008460Y008632D01*
X008460Y008532D02*
X008330Y008532D01*
X008330Y008374D02*
X008460Y008374D01*
X008330Y008215D02*
X008613Y008215D01*
X008918Y008215D02*
X009073Y008215D01*
X009073Y008374D02*
X008918Y008374D01*
X008918Y008532D02*
X009073Y008532D01*
X009073Y008849D02*
X008918Y008849D01*
X008918Y009008D02*
X009073Y009008D01*
X009073Y009166D02*
X008918Y009166D01*
X008460Y008849D02*
X008418Y008849D01*
X008330Y008057D02*
X012890Y008057D01*
X012890Y007898D02*
X008330Y007898D01*
X008330Y007740D02*
X012890Y007740D01*
X012734Y007581D02*
X008427Y007581D01*
X008586Y007423D02*
X012594Y007423D01*
X012530Y007264D02*
X008744Y007264D01*
X008903Y007106D02*
X012530Y007106D01*
X012582Y006947D02*
X009061Y006947D01*
X009220Y006789D02*
X012705Y006789D01*
X012800Y006547D02*
X012744Y006506D01*
X012695Y006458D01*
X012654Y006401D01*
X012623Y006340D01*
X012601Y006274D01*
X012590Y006205D01*
X012590Y006171D01*
X013290Y006171D01*
X013290Y006171D01*
X013290Y006611D01*
X012996Y006611D01*
X012927Y006600D01*
X012861Y006579D01*
X012800Y006547D01*
X012709Y006472D02*
X009537Y006472D01*
X009695Y006313D02*
X012614Y006313D01*
X012590Y006171D02*
X012590Y006136D01*
X012601Y006068D01*
X012623Y006002D01*
X012654Y005940D01*
X012695Y005884D01*
X012744Y005835D01*
X012800Y005795D01*
X012861Y005763D01*
X012927Y005742D01*
X012996Y005731D01*
X013290Y005731D01*
X013290Y006171D01*
X013290Y006171D01*
X012590Y006171D01*
X012590Y006155D02*
X009854Y006155D01*
X010012Y005996D02*
X012625Y005996D01*
X012741Y005838D02*
X010171Y005838D01*
X009378Y006630D02*
X015712Y006630D01*
X015712Y006472D02*
X013872Y006472D01*
X013886Y006458D02*
X013837Y006506D01*
X013781Y006547D01*
X013719Y006579D01*
X013653Y006600D01*
X013585Y006611D01*
X013290Y006611D01*
X013290Y006171D01*
X013290Y006171D01*
X013990Y006171D01*
X013990Y006205D01*
X013980Y006274D01*
X013958Y006340D01*
X013927Y006401D01*
X013886Y006458D01*
X013967Y006313D02*
X015712Y006313D01*
X015712Y006155D02*
X013990Y006155D01*
X013990Y006171D02*
X013290Y006171D01*
X013290Y006171D01*
X013290Y005731D01*
X013585Y005731D01*
X013653Y005742D01*
X013719Y005763D01*
X013781Y005795D01*
X013837Y005835D01*
X013886Y005884D01*
X013927Y005940D01*
X013958Y006002D01*
X013980Y006068D01*
X013990Y006136D01*
X013990Y006171D01*
X013955Y005996D02*
X015604Y005996D01*
X015667Y005838D02*
X014598Y005838D01*
X014659Y005863D02*
X014771Y005976D01*
X015129Y006334D01*
X015190Y006481D01*
X015190Y008300D01*
X015193Y008300D01*
X015281Y008337D01*
X015349Y008404D01*
X015385Y008492D01*
X015385Y008495D01*
X016382Y008495D01*
X016418Y008409D01*
X016485Y008341D01*
X016573Y008305D01*
X017377Y008305D01*
X017466Y008341D01*
X017533Y008409D01*
X017570Y008497D01*
X017570Y008500D01*
X018647Y008500D01*
X018647Y008498D01*
X018561Y008498D01*
X018473Y008462D01*
X018405Y008394D01*
X018369Y008306D01*
X018369Y007581D01*
X018405Y007492D01*
X018473Y007425D01*
X018561Y007388D01*
X019135Y007388D01*
X019204Y007319D01*
X019041Y007319D01*
X019041Y006901D01*
X019499Y006901D01*
X019499Y007024D01*
X019737Y006786D01*
X019838Y006685D01*
X019971Y006630D01*
X020596Y006630D01*
X020587Y006626D01*
X020520Y006559D01*
X020483Y006471D01*
X020483Y005666D01*
X020520Y005578D01*
X020587Y005511D01*
X020676Y005474D01*
X021401Y005474D01*
X021489Y005511D01*
X021557Y005578D01*
X021590Y005657D01*
X021622Y005578D01*
X021690Y005511D01*
X021778Y005474D01*
X022168Y005474D01*
X021519Y004824D01*
X015708Y004824D01*
X015840Y004879D01*
X015952Y004992D01*
X017330Y006369D01*
X017391Y006516D01*
X017391Y006795D01*
X017407Y006802D01*
X017475Y006869D01*
X017511Y006957D01*
X017511Y007613D01*
X017475Y007701D01*
X017407Y007769D01*
X017319Y007805D01*
X016663Y007805D01*
X016575Y007769D01*
X016508Y007701D01*
X016471Y007613D01*
X016471Y006957D01*
X016508Y006869D01*
X016575Y006802D01*
X016591Y006795D01*
X016591Y006762D01*
X015448Y005618D01*
X013737Y005618D01*
X013674Y005681D01*
X013834Y005747D01*
X013889Y005802D01*
X014512Y005802D01*
X014659Y005863D01*
X014792Y005996D02*
X015826Y005996D01*
X015984Y006155D02*
X014950Y006155D01*
X015109Y006313D02*
X016143Y006313D01*
X016301Y006472D02*
X015187Y006472D01*
X015190Y006630D02*
X016460Y006630D01*
X016591Y006789D02*
X015190Y006789D01*
X015190Y006947D02*
X016475Y006947D01*
X016471Y007106D02*
X015190Y007106D01*
X015190Y007264D02*
X016471Y007264D01*
X016471Y007423D02*
X015190Y007423D01*
X015190Y007581D02*
X016471Y007581D01*
X016547Y007740D02*
X015190Y007740D01*
X015190Y007898D02*
X018369Y007898D01*
X018369Y007740D02*
X017436Y007740D01*
X017511Y007581D02*
X018369Y007581D01*
X018477Y007423D02*
X017511Y007423D01*
X017511Y007264D02*
X018480Y007264D01*
X018465Y007249D02*
X018441Y007208D01*
X018429Y007162D01*
X018429Y006901D01*
X018886Y006901D01*
X018886Y006746D01*
X019041Y006746D01*
X019041Y006329D01*
X019342Y006329D01*
X019388Y006341D01*
X019429Y006365D01*
X019463Y006398D01*
X019486Y006439D01*
X019499Y006485D01*
X019499Y006746D01*
X019041Y006746D01*
X019041Y006901D01*
X018886Y006901D01*
X018886Y007319D01*
X018585Y007319D01*
X018539Y007306D01*
X018498Y007283D01*
X018465Y007249D01*
X018429Y007106D02*
X017511Y007106D01*
X017507Y006947D02*
X018429Y006947D01*
X018429Y006746D02*
X018429Y006485D01*
X018441Y006439D01*
X018465Y006398D01*
X018498Y006365D01*
X018539Y006341D01*
X018585Y006329D01*
X018886Y006329D01*
X018886Y006746D01*
X018429Y006746D01*
X018429Y006630D02*
X017391Y006630D01*
X017391Y006789D02*
X018886Y006789D01*
X019041Y006789D02*
X019734Y006789D01*
X019576Y006947D02*
X019499Y006947D01*
X019499Y006630D02*
X019969Y006630D01*
X019495Y006472D02*
X020484Y006472D01*
X020483Y006313D02*
X017274Y006313D01*
X017373Y006472D02*
X018432Y006472D01*
X018886Y006472D02*
X019041Y006472D01*
X019041Y006630D02*
X018886Y006630D01*
X018886Y006947D02*
X019041Y006947D01*
X019041Y007106D02*
X018886Y007106D01*
X018886Y007264D02*
X019041Y007264D01*
X018369Y008057D02*
X015190Y008057D01*
X015190Y008215D02*
X018369Y008215D01*
X018397Y008374D02*
X017498Y008374D01*
X016453Y008374D02*
X015318Y008374D01*
X015289Y008430D02*
X015313Y008471D01*
X015325Y008516D01*
X015325Y008778D01*
X014868Y008778D01*
X014868Y008933D01*
X014713Y008933D01*
X014713Y009350D01*
X014412Y009350D01*
X014366Y009338D01*
X014325Y009314D01*
X014291Y009281D01*
X014268Y009240D01*
X014255Y009194D01*
X014255Y008933D01*
X014713Y008933D01*
X014713Y008778D01*
X014255Y008778D01*
X014255Y008516D01*
X014268Y008471D01*
X014291Y008430D01*
X014325Y008396D01*
X014366Y008372D01*
X014412Y008360D01*
X014713Y008360D01*
X014713Y008778D01*
X014868Y008778D01*
X014868Y008360D01*
X015169Y008360D01*
X015215Y008372D01*
X015256Y008396D01*
X015289Y008430D01*
X015217Y008374D02*
X015712Y008374D01*
X015712Y008532D02*
X015325Y008532D01*
X015325Y008691D02*
X015712Y008691D01*
X015712Y008849D02*
X014868Y008849D01*
X014868Y008933D02*
X015325Y008933D01*
X015325Y009194D01*
X015313Y009240D01*
X015289Y009281D01*
X015256Y009314D01*
X015215Y009338D01*
X015169Y009350D01*
X014868Y009350D01*
X014868Y008933D01*
X014868Y009008D02*
X014713Y009008D01*
X014713Y009166D02*
X014868Y009166D01*
X014868Y009325D02*
X014713Y009325D01*
X014344Y009325D02*
X013690Y009325D01*
X013690Y009483D02*
X014272Y009483D01*
X014255Y009166D02*
X013690Y009166D01*
X013690Y009008D02*
X014255Y009008D01*
X014255Y008691D02*
X013690Y008691D01*
X013690Y008849D02*
X014713Y008849D01*
X014713Y008691D02*
X014868Y008691D01*
X014868Y008532D02*
X014713Y008532D01*
X014713Y008374D02*
X014868Y008374D01*
X014363Y008374D02*
X013690Y008374D01*
X013690Y008532D02*
X014255Y008532D01*
X013690Y008215D02*
X015712Y008215D01*
X015712Y008057D02*
X013690Y008057D01*
X013690Y007898D02*
X015712Y007898D01*
X015712Y007740D02*
X013690Y007740D01*
X013847Y007581D02*
X015712Y007581D01*
X015712Y007423D02*
X013987Y007423D01*
X014050Y007264D02*
X015712Y007264D01*
X015712Y007106D02*
X014050Y007106D01*
X013999Y006947D02*
X015712Y006947D01*
X015712Y006789D02*
X013876Y006789D01*
X013290Y006472D02*
X013290Y006472D01*
X013290Y006313D02*
X013290Y006313D01*
X013290Y006155D02*
X013290Y006155D01*
X013290Y005996D02*
X013290Y005996D01*
X013290Y005838D02*
X013290Y005838D01*
X013675Y005679D02*
X015509Y005679D01*
X015446Y005838D02*
X013840Y005838D01*
X015848Y004887D02*
X021581Y004887D01*
X021740Y005045D02*
X016006Y005045D01*
X016165Y005204D02*
X021898Y005204D01*
X022057Y005362D02*
X016323Y005362D01*
X016482Y005521D02*
X020577Y005521D01*
X020483Y005679D02*
X016640Y005679D01*
X016799Y005838D02*
X020483Y005838D01*
X020483Y005996D02*
X016957Y005996D01*
X017116Y006155D02*
X020483Y006155D01*
X021500Y005521D02*
X021680Y005521D01*
X015712Y009008D02*
X015325Y009008D01*
X015325Y009166D02*
X015712Y009166D01*
X015712Y009325D02*
X015237Y009325D01*
X015308Y009483D02*
X015712Y009483D01*
X015712Y009642D02*
X015385Y009642D01*
X015385Y009800D02*
X015712Y009800D01*
X015712Y009959D02*
X015385Y009959D01*
X015385Y010117D02*
X015712Y010117D01*
X015712Y010276D02*
X015385Y010276D01*
X015340Y010434D02*
X015712Y010434D01*
X015712Y010593D02*
X015126Y010593D01*
X015126Y010751D02*
X015712Y010751D01*
X015712Y010910D02*
X015126Y010910D01*
X015126Y011068D02*
X015712Y011068D01*
X015712Y011227D02*
X015126Y011227D01*
X015126Y011385D02*
X015712Y011385D01*
X015712Y011544D02*
X015126Y011544D01*
X015238Y011702D02*
X015712Y011702D01*
X015712Y011861D02*
X015397Y011861D01*
X015313Y012900D02*
X014950Y012900D01*
X014831Y013020D01*
X014831Y013545D01*
X014981Y013545D01*
X014981Y014003D01*
X015136Y014003D01*
X015136Y013545D01*
X015313Y013545D01*
X015313Y012900D01*
X015313Y012970D02*
X014880Y012970D01*
X014831Y013129D02*
X015313Y013129D01*
X015313Y013287D02*
X014831Y013287D01*
X014831Y013446D02*
X015313Y013446D01*
X015136Y013604D02*
X014981Y013604D01*
X014981Y013763D02*
X015136Y013763D01*
X015136Y013921D02*
X014981Y013921D01*
X014981Y014158D02*
X014981Y014615D01*
X014831Y014615D01*
X014831Y015743D01*
X015008Y015743D01*
X015008Y016200D01*
X015163Y016200D01*
X015163Y016355D01*
X015008Y016355D01*
X015008Y016811D01*
X014831Y016811D01*
X014831Y016990D01*
X014785Y017101D01*
X014588Y017297D01*
X014504Y017382D01*
X014393Y017428D01*
X012883Y017428D01*
X012665Y017646D01*
X012665Y018615D01*
X012760Y018615D01*
X012848Y018652D01*
X012899Y018702D01*
X015684Y018702D01*
X015684Y018276D01*
X015720Y018188D01*
X015788Y018120D01*
X015876Y018084D01*
X016531Y018084D01*
X016620Y018120D01*
X016687Y018188D01*
X016724Y018276D01*
X016724Y018702D01*
X017774Y018702D01*
X017774Y016268D01*
X017753Y016246D01*
X017738Y016246D01*
X017738Y016460D01*
X017281Y016460D01*
X017281Y016614D01*
X017738Y016614D01*
X017738Y016876D01*
X017726Y016921D01*
X017702Y016962D01*
X017669Y016996D01*
X017628Y017020D01*
X017582Y017032D01*
X017281Y017032D01*
X017281Y016614D01*
X017126Y016614D01*
X017126Y016460D01*
X016669Y016460D01*
X016669Y016246D01*
X016341Y016246D01*
X016231Y016201D01*
X015359Y015329D01*
X015313Y015219D01*
X015313Y014615D01*
X015136Y014615D01*
X015136Y014158D01*
X014981Y014158D01*
X014981Y014238D02*
X015136Y014238D01*
X015136Y014397D02*
X014981Y014397D01*
X014981Y014555D02*
X015136Y014555D01*
X015313Y014714D02*
X014831Y014714D01*
X014831Y014872D02*
X015313Y014872D01*
X015313Y015031D02*
X014831Y015031D01*
X014831Y015189D02*
X015313Y015189D01*
X015378Y015348D02*
X014831Y015348D01*
X014831Y015506D02*
X015536Y015506D01*
X015695Y015665D02*
X014831Y015665D01*
X015008Y015823D02*
X015163Y015823D01*
X015163Y015743D02*
X015424Y015743D01*
X015470Y015755D01*
X015511Y015779D01*
X015545Y015812D01*
X015568Y015853D01*
X015581Y015899D01*
X015581Y016200D01*
X015163Y016200D01*
X015163Y015743D01*
X015163Y015982D02*
X015008Y015982D01*
X015008Y016140D02*
X015163Y016140D01*
X015163Y016299D02*
X016669Y016299D01*
X016669Y016457D02*
X015581Y016457D01*
X015581Y016355D02*
X015581Y016655D01*
X015568Y016701D01*
X015545Y016742D01*
X015511Y016776D01*
X015470Y016799D01*
X015424Y016811D01*
X015163Y016811D01*
X015163Y016355D01*
X015581Y016355D01*
X015581Y016140D02*
X016170Y016140D01*
X016012Y015982D02*
X015581Y015982D01*
X015551Y015823D02*
X015853Y015823D01*
X015163Y016457D02*
X015008Y016457D01*
X015008Y016616D02*
X015163Y016616D01*
X015163Y016774D02*
X015008Y016774D01*
X014831Y016933D02*
X016688Y016933D01*
X016682Y016921D02*
X016669Y016876D01*
X016669Y016614D01*
X017126Y016614D01*
X017126Y017032D01*
X016826Y017032D01*
X016780Y017020D01*
X016739Y016996D01*
X016705Y016962D01*
X016682Y016921D01*
X016669Y016774D02*
X015512Y016774D01*
X015581Y016616D02*
X016669Y016616D01*
X017126Y016616D02*
X017281Y016616D01*
X017281Y016774D02*
X017126Y016774D01*
X017126Y016933D02*
X017281Y016933D01*
X017719Y016933D02*
X017774Y016933D01*
X017774Y017091D02*
X014789Y017091D01*
X014636Y017250D02*
X017774Y017250D01*
X017774Y017408D02*
X014439Y017408D01*
X015715Y018201D02*
X012665Y018201D01*
X012665Y018359D02*
X015684Y018359D01*
X015684Y018518D02*
X012665Y018518D01*
X012873Y018676D02*
X015684Y018676D01*
X016724Y018676D02*
X017774Y018676D01*
X017774Y018518D02*
X016724Y018518D01*
X016724Y018359D02*
X017774Y018359D01*
X017774Y018201D02*
X016693Y018201D01*
X017774Y018042D02*
X012665Y018042D01*
X012665Y017884D02*
X017774Y017884D01*
X017774Y017725D02*
X012665Y017725D01*
X012744Y017567D02*
X017774Y017567D01*
X017738Y016774D02*
X017774Y016774D01*
X017774Y016616D02*
X017738Y016616D01*
X017738Y016457D02*
X017774Y016457D01*
X017774Y016299D02*
X017738Y016299D01*
X019582Y014634D02*
X020224Y014634D01*
X020312Y014670D01*
X020380Y014738D01*
X020416Y014826D01*
X020416Y015563D01*
X020380Y015651D01*
X020312Y015719D01*
X020237Y015750D01*
X020237Y017797D01*
X020388Y017949D01*
X021077Y017949D01*
X021059Y017931D01*
X021023Y017843D01*
X021023Y016649D01*
X021059Y016561D01*
X021127Y016493D01*
X021215Y016456D01*
X021822Y016456D01*
X021911Y016493D01*
X021978Y016561D01*
X022015Y016649D01*
X022015Y016946D01*
X022081Y016946D01*
X022081Y016701D01*
X022118Y016613D01*
X022185Y016546D01*
X022274Y016509D01*
X022929Y016509D01*
X023017Y016546D01*
X023085Y016613D01*
X023121Y016701D01*
X023121Y017357D01*
X023085Y017445D01*
X023083Y017447D01*
X023322Y017447D01*
X023411Y017483D01*
X023478Y017551D01*
X023511Y017630D01*
X023544Y017551D01*
X023611Y017483D01*
X023699Y017447D01*
X023702Y017447D01*
X023702Y016860D01*
X023652Y016860D01*
X023563Y016824D01*
X023496Y016756D01*
X023459Y016668D01*
X023459Y016012D01*
X023496Y015924D01*
X023563Y015857D01*
X023652Y015820D01*
X024307Y015820D01*
X024395Y015857D01*
X024463Y015924D01*
X024499Y016012D01*
X024499Y016668D01*
X024463Y016756D01*
X024422Y016797D01*
X024422Y017447D01*
X024425Y017447D01*
X024513Y017483D01*
X024580Y017551D01*
X024617Y017639D01*
X024617Y018443D01*
X024580Y018531D01*
X024513Y018599D01*
X024425Y018635D01*
X023699Y018635D01*
X023611Y018599D01*
X023544Y018531D01*
X023511Y018452D01*
X023478Y018531D01*
X023411Y018599D01*
X023322Y018635D01*
X022844Y018635D01*
X022764Y018669D01*
X020168Y018669D01*
X020093Y018638D01*
X020158Y018702D01*
X025357Y018702D01*
X026046Y018013D01*
X026046Y015828D01*
X025965Y015828D01*
X025965Y016245D01*
X025664Y016245D01*
X025618Y016233D01*
X025577Y016209D01*
X025543Y016176D01*
X025520Y016135D01*
X025507Y016089D01*
X025507Y015828D01*
X025965Y015828D01*
X025965Y015673D01*
X026046Y015673D01*
X026046Y015186D01*
X025640Y015186D01*
X025551Y015149D01*
X025484Y015082D01*
X025447Y014993D01*
X025447Y014268D01*
X025484Y014180D01*
X025551Y014112D01*
X025640Y014076D01*
X025682Y014076D01*
X025682Y013564D01*
X025642Y013467D01*
X025642Y013308D01*
X025682Y013211D01*
X025682Y012978D01*
X025675Y012985D01*
X025587Y013022D01*
X025030Y013022D01*
X025030Y013553D01*
X024994Y013641D01*
X024926Y013709D01*
X024838Y013746D01*
X024034Y013746D01*
X023946Y013709D01*
X023878Y013641D01*
X023842Y013553D01*
X023842Y013491D01*
X023675Y013491D01*
X023689Y013525D01*
X023689Y013556D01*
X023717Y013556D01*
X023805Y013593D01*
X023872Y013660D01*
X023909Y013749D01*
X023909Y013928D01*
X023914Y013908D01*
X023938Y013867D01*
X023971Y013834D01*
X024012Y013810D01*
X024058Y013798D01*
X024359Y013798D01*
X024359Y014215D01*
X024514Y014215D01*
X024514Y014370D01*
X024970Y014370D01*
X024970Y014632D01*
X024958Y014677D01*
X024934Y014718D01*
X024901Y014752D01*
X024860Y014776D01*
X024814Y014788D01*
X024514Y014788D01*
X024514Y014370D01*
X024359Y014370D01*
X024359Y014788D01*
X024058Y014788D01*
X024012Y014776D01*
X023971Y014752D01*
X023938Y014718D01*
X023914Y014677D01*
X023902Y014632D01*
X023902Y014421D01*
X023872Y014492D01*
X023805Y014560D01*
X023717Y014596D01*
X023061Y014596D01*
X022973Y014560D01*
X022905Y014492D01*
X022869Y014404D01*
X022869Y013749D01*
X022894Y013687D01*
X019914Y013687D01*
X019917Y013697D01*
X019917Y013781D01*
X019855Y013781D01*
X019855Y013781D01*
X019917Y013781D01*
X019917Y013865D01*
X019905Y013911D01*
X019881Y013952D01*
X019848Y013985D01*
X019807Y014009D01*
X019761Y014021D01*
X019617Y014021D01*
X019582Y014021D01*
X019582Y014634D01*
X019582Y014555D02*
X022968Y014555D01*
X022869Y014397D02*
X019582Y014397D01*
X019582Y014238D02*
X022869Y014238D01*
X022869Y014080D02*
X019582Y014080D01*
X019617Y014021D02*
X019617Y013781D01*
X019617Y013781D01*
X019617Y014021D01*
X019617Y013921D02*
X019617Y013921D01*
X019899Y013921D02*
X022869Y013921D01*
X022869Y013763D02*
X019917Y013763D01*
X020356Y014714D02*
X021011Y014714D01*
X021001Y014731D02*
X021024Y014690D01*
X021058Y014657D01*
X021099Y014633D01*
X021145Y014621D01*
X021443Y014621D01*
X021443Y015114D01*
X021603Y015114D01*
X021603Y014621D01*
X021901Y014621D01*
X021946Y014633D01*
X021987Y014657D01*
X022021Y014690D01*
X022045Y014731D01*
X022057Y014777D01*
X022057Y015114D01*
X021603Y015114D01*
X021603Y015274D01*
X022057Y015274D01*
X022057Y015612D01*
X022045Y015658D01*
X022021Y015699D01*
X021987Y015732D01*
X021946Y015756D01*
X021901Y015768D01*
X021603Y015768D01*
X021603Y015274D01*
X021443Y015274D01*
X021443Y015114D01*
X020988Y015114D01*
X020988Y014777D01*
X021001Y014731D01*
X020988Y014872D02*
X020416Y014872D01*
X020416Y015031D02*
X020988Y015031D01*
X020988Y015274D02*
X021443Y015274D01*
X021443Y015768D01*
X021145Y015768D01*
X021099Y015756D01*
X021058Y015732D01*
X021024Y015699D01*
X021001Y015658D01*
X020988Y015612D01*
X020988Y015274D01*
X020988Y015348D02*
X020416Y015348D01*
X020416Y015506D02*
X020988Y015506D01*
X021005Y015665D02*
X020366Y015665D01*
X020237Y015823D02*
X023644Y015823D01*
X023472Y015982D02*
X020237Y015982D01*
X020237Y016140D02*
X023459Y016140D01*
X023459Y016299D02*
X020237Y016299D01*
X020237Y016457D02*
X021213Y016457D01*
X021036Y016616D02*
X020237Y016616D01*
X020237Y016774D02*
X021023Y016774D01*
X021023Y016933D02*
X020237Y016933D01*
X020237Y017091D02*
X021023Y017091D01*
X021023Y017250D02*
X020237Y017250D01*
X020237Y017408D02*
X021023Y017408D01*
X021023Y017567D02*
X020237Y017567D01*
X020237Y017725D02*
X021023Y017725D01*
X021040Y017884D02*
X020324Y017884D01*
X020132Y018676D02*
X025383Y018676D01*
X025542Y018518D02*
X024586Y018518D01*
X024617Y018359D02*
X025700Y018359D01*
X025859Y018201D02*
X024617Y018201D01*
X024617Y018042D02*
X026017Y018042D01*
X026046Y017884D02*
X024617Y017884D01*
X024617Y017725D02*
X026046Y017725D01*
X026046Y017567D02*
X024587Y017567D01*
X024422Y017408D02*
X026046Y017408D01*
X026046Y017250D02*
X024422Y017250D01*
X024422Y017091D02*
X026046Y017091D01*
X026046Y016933D02*
X024422Y016933D01*
X024444Y016774D02*
X026046Y016774D01*
X026046Y016616D02*
X024499Y016616D01*
X024499Y016457D02*
X026046Y016457D01*
X026046Y016299D02*
X024499Y016299D01*
X024499Y016140D02*
X025523Y016140D01*
X025507Y015982D02*
X024487Y015982D01*
X024315Y015823D02*
X025965Y015823D01*
X025965Y015673D02*
X025507Y015673D01*
X025507Y015412D01*
X025520Y015366D01*
X025543Y015325D01*
X025577Y015291D01*
X025618Y015268D01*
X025664Y015255D01*
X025965Y015255D01*
X025965Y015673D01*
X025965Y015665D02*
X026046Y015665D01*
X026046Y015506D02*
X025965Y015506D01*
X025965Y015348D02*
X026046Y015348D01*
X026046Y015189D02*
X021603Y015189D01*
X021603Y015031D02*
X021443Y015031D01*
X021443Y015189D02*
X020416Y015189D01*
X021443Y015348D02*
X021603Y015348D01*
X021603Y015506D02*
X021443Y015506D01*
X021443Y015665D02*
X021603Y015665D01*
X022040Y015665D02*
X025507Y015665D01*
X025507Y015506D02*
X022057Y015506D01*
X022057Y015348D02*
X025530Y015348D01*
X025463Y015031D02*
X022057Y015031D01*
X022057Y014872D02*
X025447Y014872D01*
X025447Y014714D02*
X024937Y014714D01*
X024970Y014555D02*
X025447Y014555D01*
X025447Y014397D02*
X024970Y014397D01*
X024970Y014215D02*
X024970Y013954D01*
X024958Y013908D01*
X024934Y013867D01*
X024901Y013834D01*
X024860Y013810D01*
X024814Y013798D01*
X024514Y013798D01*
X024514Y014215D01*
X024970Y014215D01*
X024970Y014080D02*
X025630Y014080D01*
X025682Y013921D02*
X024962Y013921D01*
X025009Y013604D02*
X025682Y013604D01*
X025682Y013763D02*
X023909Y013763D01*
X023909Y013921D02*
X023910Y013921D01*
X023863Y013604D02*
X023816Y013604D01*
X024359Y013921D02*
X024514Y013921D01*
X024514Y014080D02*
X024359Y014080D01*
X024514Y014238D02*
X025460Y014238D01*
X024514Y014397D02*
X024359Y014397D01*
X024359Y014555D02*
X024514Y014555D01*
X024514Y014714D02*
X024359Y014714D01*
X023935Y014714D02*
X022035Y014714D01*
X021603Y014714D02*
X021443Y014714D01*
X021443Y014872D02*
X021603Y014872D01*
X021825Y016457D02*
X023459Y016457D01*
X023459Y016616D02*
X023086Y016616D01*
X023121Y016774D02*
X023514Y016774D01*
X023702Y016933D02*
X023121Y016933D01*
X023121Y017091D02*
X023702Y017091D01*
X023702Y017250D02*
X023121Y017250D01*
X023100Y017408D02*
X023702Y017408D01*
X023537Y017567D02*
X023485Y017567D01*
X023484Y018518D02*
X023538Y018518D01*
X022081Y016933D02*
X022015Y016933D01*
X022015Y016774D02*
X022081Y016774D01*
X022117Y016616D02*
X022001Y016616D01*
X023809Y014555D02*
X023902Y014555D01*
X025030Y013446D02*
X025642Y013446D01*
X025651Y013287D02*
X025030Y013287D01*
X025030Y013129D02*
X025682Y013129D01*
X025965Y015982D02*
X026046Y015982D01*
X026046Y016140D02*
X025965Y016140D01*
X028275Y015861D02*
X028360Y015946D01*
X032247Y015946D01*
X032613Y015580D01*
X032613Y008761D01*
X032629Y008746D01*
X033082Y008746D01*
X032613Y008761D02*
X032613Y006832D01*
X031164Y009746D02*
X031188Y009769D01*
X031952Y016931D02*
X033231Y016931D01*
X033330Y017029D01*
X033330Y018506D01*
X033034Y018801D01*
X032156Y018801D01*
X032117Y018742D01*
X032117Y018486D02*
X032117Y018230D01*
X032117Y017974D01*
X031853Y017029D02*
X031952Y016931D01*
X031853Y017029D02*
X031755Y017029D01*
X020239Y020671D02*
X020239Y022639D01*
X019735Y023143D01*
X018826Y023143D01*
X018826Y023458D02*
X018861Y023494D01*
X018861Y023919D01*
X018763Y024017D01*
X012759Y024017D01*
X012487Y023746D01*
X012487Y023557D01*
X012212Y023557D02*
X012212Y023329D01*
X012074Y023192D01*
X011936Y023054D01*
X011936Y022826D01*
X012212Y022826D01*
X012487Y022826D02*
X012487Y021655D01*
X012586Y021754D01*
X018664Y021754D01*
X018826Y021915D01*
X018826Y022728D01*
X018550Y022728D02*
X018275Y022728D01*
X018412Y022866D01*
X018412Y023093D01*
X018275Y023231D01*
X018275Y023458D01*
X018550Y023458D01*
X018550Y023541D01*
X018369Y023722D01*
X017046Y023722D01*
X016767Y023443D01*
X016736Y023473D01*
X016204Y023473D01*
X014369Y023473D01*
X012212Y023557D02*
X011936Y023557D01*
X012487Y021655D02*
X012487Y020420D01*
X012357Y020290D01*
X018597Y020388D02*
X019956Y020388D01*
X020239Y020671D01*
X014017Y013921D02*
X013862Y013921D01*
X013862Y013763D02*
X014017Y013763D01*
X014017Y013604D02*
X013862Y013604D01*
X011447Y010434D02*
X009415Y010434D01*
X009555Y010276D02*
X011412Y010276D01*
X011412Y010117D02*
X009590Y010117D01*
X009590Y009959D02*
X011412Y009959D01*
D38*
X010692Y009254D02*
X010692Y008761D01*
X010790Y008663D01*
X011803Y008663D01*
X012007Y008867D01*
X014790Y009975D02*
X014826Y010010D01*
X014826Y011714D01*
X015318Y012206D01*
X018397Y012206D01*
X018397Y012009D02*
X017090Y012009D01*
X016893Y011813D01*
X016893Y010045D01*
X016975Y009962D01*
X018271Y009549D02*
X018712Y009990D01*
X018712Y011891D01*
X019302Y011891D02*
X019302Y009206D01*
X019649Y008860D01*
X020042Y008860D01*
X020239Y008663D01*
X020239Y007974D01*
X022601Y008466D02*
X024570Y008466D01*
X025357Y009254D01*
X025357Y011419D01*
X024668Y012108D01*
X023684Y012108D01*
X023389Y012403D01*
X023389Y012600D01*
X023192Y012797D01*
X019617Y012797D01*
X019617Y012994D02*
X023684Y012994D01*
X023782Y012895D01*
X023782Y012600D01*
X023881Y012502D01*
X025259Y012502D01*
X024436Y013191D02*
X019617Y013191D01*
X019617Y013387D02*
X023192Y013387D01*
X023389Y013584D01*
X023389Y014076D01*
X021519Y014273D02*
X021519Y015191D01*
X021523Y015194D01*
X021519Y014273D02*
X021371Y014126D01*
X021027Y013781D01*
X019617Y013781D01*
X019617Y013584D01*
X019282Y013899D02*
X019282Y016899D01*
X018731Y016348D01*
X018731Y013899D01*
X018397Y013781D02*
X018397Y013584D01*
X018397Y013387D02*
X017975Y013387D01*
X017680Y013683D01*
X017188Y014175D02*
X016696Y013683D01*
X016696Y013289D01*
X016794Y013191D01*
X018397Y013191D01*
X018397Y012994D02*
X016401Y012994D01*
X016204Y013191D01*
X016204Y014569D01*
X015613Y015159D02*
X016401Y015946D01*
X017877Y015946D01*
X018074Y016143D01*
X018074Y018745D01*
X018597Y019269D01*
X019629Y017246D02*
X019282Y016899D01*
X017204Y015435D02*
X017188Y015419D01*
X017188Y014569D01*
X018271Y014569D01*
X018397Y014443D01*
X018397Y013781D01*
X017188Y014175D02*
X017188Y014569D01*
X015613Y015159D02*
X015613Y012895D01*
X015712Y012797D01*
X018397Y012797D01*
X018397Y012600D02*
X014826Y012600D01*
X014531Y012895D01*
X014531Y016931D01*
X014334Y017128D01*
X012759Y017128D01*
X012365Y017521D01*
X012365Y019162D01*
X012357Y019170D01*
X019617Y012600D02*
X021223Y012600D01*
X021322Y012502D01*
X022897Y012502D01*
X022995Y012403D01*
X022995Y011320D01*
X022787Y011113D01*
X021534Y011113D01*
X021617Y011911D02*
X022405Y011911D01*
X021617Y011911D02*
X021125Y012403D01*
X019617Y012403D01*
X019617Y012206D02*
X020338Y012206D01*
X020731Y011813D01*
X019944Y011683D02*
X019617Y012009D01*
X019944Y011683D02*
X019944Y010533D01*
X022995Y011320D02*
X023192Y011124D01*
X023723Y011124D01*
X023806Y011206D01*
X022601Y017029D02*
X022385Y017246D01*
X021519Y017246D01*
D39*
X022692Y018309D02*
X020239Y018309D01*
X019877Y017946D01*
X019877Y016998D01*
X019629Y017246D01*
X019877Y016998D02*
X019877Y015194D01*
X020534Y014273D02*
X021223Y014273D01*
X021371Y014126D01*
X021523Y015194D02*
X022145Y015194D01*
X022601Y015651D01*
X024570Y015651D01*
X024436Y015517D01*
X024436Y014293D01*
X026042Y014631D02*
X026042Y013387D01*
X026042Y009943D01*
X026165Y010065D01*
X029664Y010065D01*
X029664Y008946D02*
X026945Y008946D01*
X026834Y009057D01*
X026042Y008659D02*
X025899Y008515D01*
X027562Y006852D01*
X027562Y005990D01*
X027719Y005832D01*
X027719Y004529D01*
X026460Y005990D02*
X025440Y005990D01*
X025259Y005809D01*
X025259Y005935D01*
X025165Y006029D01*
X025259Y005809D02*
X025259Y004431D01*
X024045Y006029D02*
X024045Y006825D01*
X023782Y007088D01*
X024006Y006069D02*
X024045Y006029D01*
X024006Y006069D02*
X022141Y006069D01*
X021038Y006069D02*
X021038Y006990D01*
X020042Y006990D01*
X019045Y007987D01*
X019007Y007987D01*
X018964Y007943D01*
X018994Y007974D01*
X019007Y007987D02*
X019007Y008958D01*
X018908Y008860D01*
X016975Y008860D01*
X016971Y008855D01*
X014790Y008855D01*
X019007Y008958D02*
X019007Y012915D01*
X018271Y014569D02*
X018271Y015257D01*
X018369Y015356D01*
X018369Y017423D01*
X021420Y020474D01*
X022692Y018309D02*
X022960Y018041D01*
X024062Y018041D02*
X024062Y016423D01*
X023979Y016340D01*
X024570Y015651D02*
X025653Y015651D01*
X025751Y015553D01*
X025845Y015553D01*
X026042Y015750D01*
X028212Y015924D02*
X028212Y016832D01*
X028275Y014741D02*
X028275Y011777D01*
X028113Y011616D01*
X030672Y011616D01*
X030820Y011468D01*
X031263Y011911D01*
X031263Y013191D01*
X031680Y013608D01*
X032086Y013608D01*
X029979Y013462D02*
X029983Y012966D01*
X029983Y012600D01*
X030820Y011468D02*
X031164Y011124D01*
X031239Y011049D01*
X032046Y011049D01*
X031164Y011124D02*
X031164Y009943D01*
X031164Y009746D01*
X031164Y008663D01*
X031247Y008746D01*
X031979Y008746D01*
X031164Y008663D02*
X031164Y006006D01*
X030896Y005737D01*
X029664Y005737D01*
X029664Y006857D02*
X029664Y008946D01*
X026042Y008659D02*
X026042Y009943D01*
X025899Y008515D02*
X025160Y007777D01*
X021747Y007777D01*
X021534Y007990D01*
X021038Y007494D01*
X021038Y006990D01*
X021534Y007990D02*
X021534Y009993D01*
X023586Y009155D02*
X023806Y009376D01*
X023806Y010104D01*
X032247Y004431D02*
X032613Y004797D01*
X032613Y005730D01*
X032641Y017521D02*
X032570Y017521D01*
X032117Y017974D01*
X007542Y011517D02*
X006259Y011517D01*
D40*
X026834Y009057D03*
D41*
X010696Y014080D03*
M02*
