%
M48
M72
T01C0.0315
T02C0.0320
T03C0.0360
T04C0.0520
T05C0.1181
T06C0.1260
%
T01
X7739Y6104
X10692Y9254
X7838Y9746
X7542Y11517
X10696Y14080
X16204Y14569
X17680Y13683
X20534Y14273
X23389Y14076
X25259Y12502
X26538Y13387
X27326Y13584
X28113Y11616
X29983Y12600
X31460Y14962
X29885Y16734
X28212Y16832
X31755Y17029
X32641Y17521
X31109Y19730
X29885Y21261
X28704Y23624
X22601Y17029
X23979Y16340
X22405Y11911
X20731Y11813
X19944Y10533
X18271Y9549
X20239Y7974
X22601Y8466
X23586Y9155
X23782Y7088
X26834Y9057
X31853Y9844
X33625Y12403
X27719Y4529
X26440Y3840
X25259Y4431
X18960Y5809
X16991Y7285
X17483Y17521
X16204Y18604
X16204Y20966
X16204Y22443
X8920Y23269
X5869Y19293
X32247Y4431
T02
X13290Y6171
X13290Y7171
X34357Y19730
X34357Y22730
T03
X34357Y18230
X34357Y17230
X34357Y16230
T04
X22597Y2954
X20627Y2954
X18562Y2954
X16592Y2954
X14526Y2954
X12556Y2954
T05
X4334Y21419
X3192Y23269
X5515Y23269
T06
X1932Y1478
X2031Y19293
X33723Y25002
X34117Y1478
M30
